<mxfile host="www.draw.io" modified="2020-01-08T09:45:14.863Z" agent="Mozilla/5.0 (X11; Ubuntu; Linux x86_64; rv:71.0) Gecko/20100101 Firefox/71.0" etag="Pa4B3j4KJsQHlpqfKtP-" version="12.4.9" type="github">
  <diagram id="jTrFzx72ZTqtM5Nok_yu" name="Page-1">
    <mxGraphModel dx="1995" dy="1113" grid="1" gridSize="10" guides="1" tooltips="1" connect="1" arrows="1" fold="1" page="1" pageScale="1" pageWidth="850" pageHeight="1100" math="0" shadow="0">
      <root>
        <mxCell id="0"/>
        <mxCell id="1" parent="0"/>
        <mxCell id="fbxOmN61Y4CG9saaucBQ-1" value="Test" style="whiteSpace=wrap;html=1;aspect=fixed;" vertex="1" parent="1">
          <mxGeometry x="370" y="180" width="80" height="80" as="geometry"/>
        </mxCell>
        <mxCell id="fbxOmN61Y4CG9saaucBQ-2" value="Nr2" style="whiteSpace=wrap;html=1;aspect=fixed;" vertex="1" parent="1">
          <mxGeometry x="370" y="280" width="80" height="80" as="geometry"/>
        </mxCell>
      </root>
    </mxGraphModel>
  </diagram>
</mxfile>
